<svg xmlns="http://www.w3.org/2000/svg" width="188.429" height="257.331" viewBox="0 0 188.429 257.331"><path fill="#040404" d="M0 138.331v-8c.786.383 1.264-.141 1.617-.665 6.432-9.55 9.726-19.945 8.01-31.525-.331-2.236-.913-4.187 1.059-5.927 1.944-1.716 3.834-1.347 5.981-.351 3.972 1.841 8.259 2.32 12.593 2.337.386.001.774-.487 1.032-.661.453-1.643-.905-2.565-1.09-3.814 4.786-4.554 5.326-5.606 5.003-10.155-.103-1.45.146-3.28-1.667-3.805-1.834-.53-2.542 1.196-3.384 2.368-1.034 1.438-1.043 3.512-2.747 4.584-2.612-4.294-1.469-9.855 3-14.686 2.486-2.688 5.129-5.245 7.443-8.073.992-1.212 3.259-2.69 1.26-4.584-1.878-1.779-4.248-1.562-6.368-.109-1.825 1.251-2.739 3.649-5.402 4.387-.124-12.534 8.648-17.061 18.4-20.843-4.476-1.04-8.471-.822-12.826 1.258 3.82-9.103 11.498-10.006 19.086-10.817-.364-1.466-2.596-.97-1.96-2.759 3.868-1.082 7.488.544 11.208 1.058 3.088.426 4.602-.87 5.095-3.948.524-3.271-1.119-4.657-3.926-5.154-1.691-.3-3.434-.306-5.428-.466 4.784-6.473 8.513-7.841 17.986-6.96 1.199-1.332-1.636-2.115-.346-3.599 5.616-.337 7.979 5.875 13.156 7.215.338-3.749-2.061-7.034.192-11.106 5.222 7.482 11.832 8.424 19.407 4.873 3.439-1.612 3.804-4.625 3.531-8.403 2.781 2.021 3.776 4.192 3.609 7.086-.22 3.811 1.725 5.049 5.239 3.632.904-.364 1.639-1.831 2.928-.803.174 2.582-1.421 4.68-1.891 7.174 4.364 2.046 6.716 5.197 6.177 9.968-.299 2.647-1.777 4.174-4.782 4.27-.537-2.238.918-5.834-3.397-5.647-1.029.945-1.08 2.293-.735 3.271 1.882 5.336-.077 9.846-2.163 14.691-2.83 6.574-3.014 13.721-.718 20.493 1.33 3.924 1.913 6.966.127 11.182-3.654 8.626-5.94 9.535-12.464 2.952-1.45.363-1.996 2.963-4.157 1.677-3.334-1.984-2.601-5.344-2.643-8.433h-12.821c-.58 2.132-.342 3.438 1.698 3.74 3.424.507 4.339 3.175 5.017 5.946.793 3.24 6.177 6.031 8.523 3.843 3.02-2.817 5.66-.932 7.634.337 5.551 3.568 10.619 2.593 13.133-3.307 1.355-3.18 2.695-6.388 3.699-9.688.489-1.607 1.573-3.332 2.603-3.368 5.597-.197 6.342-5.415 9.301-8.306.843-.823.893-2.69 2.854-2.384.957 2.744-1.405 7.035 3.603 7.944 5.741 1.042 8.31-.456 12.572-7.655 2.279 2.229 4.56 4.165 5.259 7.595.532 2.613 2.7 3.808 5.29 2.537 2.175-1.067 4.777-1.401 6.342-3.151.256-6.049-4.551-10.99-2.67-17.036-.735-.527-1.971.201-2.515-.936 6.494-2.312 13.633-2.93 19.237-7.492l.43.435c-.921 1.748-1.448 3.949-2.838 5.158-3.891 3.386-2.55 7.32-1.784 11.25.857 4.397 2.802 8.407 5.127 12.153 1.728 2.785.656 4.18-1.62 5.606-4.098 2.569-8.876 3.497-13.176 5.681-5.662 2.876-11.13 9.881-10.906 16.076.259 7.128 1.913 14.168 1.055 21.383-.788 6.632-5.545 10.902-11.82 10.215 1.493-5.362-2.022-9.557-8.226-9.359.805 3.359-1.197 5.756-3.188 8.04l5.972 8.847c1.647-.666 3.492-.835 4.309-1.84 3.698-4.549 9.068-5.576 14.143-6.109 5.953-.625 12.374-1.218 17.586 3.095 3.433 2.841 8.772 4.928 5.383 11.134 2.846 11.899-2.983 21.068-10.039 29.399-3.062 3.615-5.94 6.741-5.22 11.984-2.727-1.206-1.863-4.728-4.91-5.35-.145 3.32-1.519 6.197-.352 9.771 1.098 3.363 3.164 5.445 6.265 7.692-12.768 3.251-19.112-2.017-20.654-13.984-2.006 1.117-.606 3.143-2.395 4.086-4.702-9.542 1.362-15.538 6.779-21.744-1.445-1.09-3.317.278-4.819-1.2 1.115-1.239 2.344-2.335 3.239-3.656 1.918-2.833.482-5.268-1.016-7.794-1.223-2.063-3.053-2.037-4.764-1.606-3.164.795-2.25 3.582-2.358 5.798-.175 3.598.798 7.495-1.879 10.528-3.881 4.398-5.526 9.843-6.917 15.225-1.19 4.601-1.939 9.888 1.181 13.96 2.271 2.964 3.138 5.653 2.51 8.603-8.818 6.444-16.567 13.42-22.257 22.286-3.654 5.694-2.981 9.094 1.238 12.802-2.054 2.101-1.878 4.462-1.317 7.226.869 4.281 2.407 9.123-3.565 11.409h-3c-.706-1.834-2.34-1.057-3.42-.921-2.946.37-4.88-.827-6.041-3.475-1.643 1.772-3.197 3.432-5.348 2.259-2.133-1.164-1.115-3.012-.434-4.798.373-.978.208-2.337-.137-3.384-2.027-6.146 1.886-11.522 4.944-14.783 3.622-3.863 7.094-8.256 11.339-11.601 5.445-4.291 6.921-10.791 9.841-16.466.842-1.636.687-3.958-.384-5.804-2.838-4.892-5.781-9.714-9.35-14.13-1.807-2.235-3.44-2.675-5.771-.516-3.542 3.279-7.183 6.429-8.187 11.439-.297 1.482-.975 2.733-2.272 2.968-7.845 1.423-12.545 7.638-18.542 11.878-4.255 3.008-5.429 6.863-3.615 11.67.48 1.273 1.217 3.031-.042 3.618-2.977 1.388-2.277 4.019-2.487 6.178-.627 6.472-4.049 9.538-10.37 9.986-4.031.285-7.676-1.457-11.776-1.055-3.679.36-3.488-2.699-2.147-5.278 1.677-3.225 3.6-6.328 5.148-9.61.509-1.078 2.578-2.934-1.079-3.743 4.124-.829 6.087-3.218 7.184-6.61.986-3.049 3.207-5.154 6.237-5.944 2.396-.624 4.143-1.984 5.921-3.494 4.443-3.773 8.806-7.653 13.418-11.208 3.04-2.343 4.377-5.255 4.368-8.922-.016-6.345.354-12.643 1.852-18.84 1.025-4.242-.135-7.403-4.716-9.043-1.093 1.543-2.02 3.258-4.006 3.557-2.751.414-1.522-2.653-2.624-3.739-6.004 5.874-11.75 6.39-17.279 1.048 7.129-.226 9.637-4.306 9.47-11.254-4.162 0-9.252 1.417-12.857-.294-7.605-3.609-11.314 1.22-15.529 5.31-2.835 2.751-5.192 6.015-7.621 9.16-3.138 4.062-3.353 11.994-1.539 16.03 2.366 5.264 7.949 3.1 11.411 5.667.68.504 2.31.144 3.31-.275 3.349-1.402 4.867.481 6.228 3.051 1.951 3.682 2.042 7.594 1.991 11.64-.028 2.243-1.354 2.637-3.139 3.232.484.656.863 1.155 1.227 1.666 1.093 1.536 1.381 3.321-.235 4.394-1.684 1.119-3.023.141-3.914-1.668-.763-1.549-2.749-1.816-3.854-2.945-2.732-2.793-8.185.503-9.791-4.52-7.845-.825-8.105-7.137-9.128-12.784-1.003-5.53-2.338-10.927-4.23-16.245-1.505-4.23-1.517-7.976 2.13-12.174 5.034-5.796 5.841-13.788 6.9-21.318.477-3.388 2.928-6.459 1.638-10.129-1.201-3.415-2.276-6.818-2.886-10.444-.576-3.424-3.093-5.762-6.766-6.44-4.029-.743-5.229 2.408-6.234 5.037-1.289 3.372-2.063 6.983-2.692 10.555-.833 4.728.539 6.468 5.553 6.399 3.045-.042 4.723 1.291 5.88 3.613 2.759 5.535.842 14.341-3.821 18.629-2.836-1.201-4.544-4.99-8.143-3.964-4.271 1.218-7.169.024-9.165-3.751-1.226-2.32-2.097-4.863-4.42-6.417zm82.012-71.452c4.776 1.047 9.228 2.07 14.071 1.016.148-7.327-7.806-7.88-9.832-13.775-3.022 4.306-4.559 8.003-4.239 12.759zm37.742 29.795c-6.096 2.263-10.806 1.343-15.35-1.058-1.009-.533-2.389-.547-3.314.295-1.293 1.177-2.358 1.162-3.955.421-3.47-1.609-4.767.761-6.343 4.166 8.354-2.781 15.75-2.651 23.098.87 2.442 1.171 4.24-.701 5.864-4.694zm-27.393-61.487c-.616 7.876 1.513 10.28 6.849 8.817-2.092-2.692-4.101-5.279-6.849-8.817zm2.034 54.25h-6.347c-.589 1.429-.637 2.628.283 3.861 2.445-.118 4.141-1.411 6.064-3.861zm15.669-45.76c4.162-1.654 4.246-4.313 3.597-8.265-1.436 2.982-3.527 4.651-3.597 8.265zM183.804 40.135c.152-.489.539-.837.918-.437.418.44-.075.711-.49.871l-.428-.434z"/><g fill="#0A77BE"><path d="M156.833 8.97l.118-.072c2.114-1.319 4.193-1.947 6.236-3.131.251-.146.502-.3.752-.466 1.44-.975 3.437-3.298 5.109-5.295l.001.006.01-.012c.1.986.257 1.796.461 2.471.427 1.373 1.051 2.176 1.742 2.794l.213.169c2.369 1.858 3.855 2.415 5.899 3.53.173.094.425.235.736.424 1.234.74 3.402 2.252 5.434 4.648 2.55 2.996 4.886 7.375 4.886 13.369 0 3.826-1.028 7.33-2.791 10.328l-.461-.016c-.975.883-2.508 1.904-5.481 1.858-1.167-.015-2.019-.092-2.749-.237l.287-.181c1.393-.975 2.09-2.462 2.044-4.506-.046-3.623-3.437-7.014-7.711-7.06-3.98-.034-7.062 2.871-9.504 4.411-7.893-5.144-9.74-9.271-10.19-10.449-.604-1.579-1.486-4.134-.557-6.967.179-.547.31-.986.404-1.34-2.722 3.043-5.467 7.771-5.467 14.531 0 12.309 9.708 20.438 20.902 20.438 3.332 0 6.565-.782 9.463-2.196-2.901 1.417-6.137 2.201-9.473 2.201-11.194 0-20.902-8.129-20.902-20.438s9.103-17.883 10.589-18.812zM167.155 48.214c3.332 0 6.565-.782 9.463-2.196l.022-.011.247-.123.092-.047.176-.091.202-.107.132-.071.184-.102.057-.032c3.247-1.824 6.005-4.467 7.907-7.701l-.461-.016c-.975.883-2.508 1.904-5.481 1.858-1.167-.015-2.019-.092-2.749-.237-.835.505-1.766.841-4.265.841-4.598 0-10.451-5.713-13.145-5.62-2.137.093-5.481 5.295-7.153 5.435-1.301.093-1.997-.511-3.112-2.137s-1.579-4.227-1.579-5.667c0-1.44.65-3.855 2.973-3.855 2.183 0 6.642 4.552 8.965 4.598.734.012 1.541-.368 2.433-.931-7.893-5.144-9.74-9.271-10.19-10.449-.604-1.579-1.486-4.134-.557-6.967.179-.547.31-.986.404-1.34-2.722 3.043-5.467 7.771-5.467 14.531 0 12.308 9.708 20.437 20.902 20.437zm-2.137-7.385c-.279.372-.557.139-1.347-.511-.79-.65-1.301-1.208-2.926-1.208-1.626 0-1.904.604-2.23 1.208-.325.604-.372.697-.697.511-.372-.186-.557-.464-.372-.929s.511-1.301 1.068-1.672c.557-.372 1.347-.418 2.09-.418.743 0 1.161-.046 1.951.279s1.626 1.068 2.137 1.533.605.835.326 1.207zm4.367 3.483c-2.044 1.858-5.435 1.719-7.943 1.486-2.508-.232-4.645-1.719-4.877-1.951-.325-.325-.232-.604-.186-.79s.232-.464.65-.139c.929.697 3.019 1.533 5.992 1.533s4.366-.604 5.295-1.347c.139-.093.093-.093.372-.093s.464.139.697.325c.232.187.325.651 0 .976z"/></g></svg>